<?xml version="1.0" encoding="UTF-8" standalone="no"?>


<svg
   xmlns:dc="http://purl.org/dc/elements/1.1/"
   xmlns:cc="http://creativecommons.org/ns#"
   xmlns:rdf="http://www.w3.org/1999/02/22-rdf-syntax-ns#"
   xmlns:svg="http://www.w3.org/2000/svg"
   xmlns="http://www.w3.org/2000/svg"
   xmlns:sodipodi="http://sodipodi.sourceforge.net/DTD/sodipodi-0.dtd"
   xmlns:inkscape="http://www.inkscape.org/namespaces/inkscape"
   xml:space="preserve"
   width="121.89127"
   height="39.999088"
   version="1.1"
   style="fill-rule:evenodd"
   viewBox="0 0 3440.0426 1128.8632"
   id="svg2"
   inkscape:version="0.48.4 r9939"
   sodipodi:docname="ECCKZ_Logo.svg"><title
   id="title2990">Логотип ТОО ЦЭК Казахстан</title><metadata
   id="metadata23"><rdf:RDF><cc:Work
       rdf:about=""><dc:format>image/svg+xml</dc:format><dc:type
         rdf:resource="http://purl.org/dc/dcmitype/StillImage" /><dc:title>Логотип ТОО ЦЭК Казахстан</dc:title><cc:license
         rdf:resource="www.ecc.kz" /><dc:source>www.ecc.kz</dc:source></cc:Work></rdf:RDF></metadata><sodipodi:namedview
   pagecolor="#ffffff"
   bordercolor="#666666"
   borderopacity="1"
   objecttolerance="10"
   gridtolerance="10"
   guidetolerance="10"
   inkscape:pageopacity="0"
   inkscape:pageshadow="2"
   inkscape:window-width="1366"
   inkscape:window-height="706"
   id="namedview21"
   showgrid="false"
   inkscape:zoom="2.5371828"
   inkscape:cx="75.080155"
   inkscape:cy="2.2614904"
   inkscape:window-x="-8"
   inkscape:window-y="-8"
   inkscape:window-maximized="1"
   inkscape:current-layer="svg2"
   fit-margin-top="5"
   fit-margin-left="5"
   fit-margin-right="5"
   fit-margin-bottom="5" />
 <defs
   id="defs4">
  <style
   type="text/css"
   id="style6">
   
    .fil1 {fill:#FEFEFE}
    .fil0 {fill:#EC691F}
    .fil2 {fill:#0C54A0;fill-rule:nonzero}
    .fil3 {fill:#EC691F;fill-rule:nonzero}
   
  </style>
 </defs>
 <g
   id="Слой_x0020_1"
   transform="translate(-1281.0684,-657.06841)">
  <metadata
   id="CorelCorpID_0Corel-Layer" />
  <g
   id="_227465544">
   <path
   class="fil0"
   d="m 1667,838 c 212,-99 463,-7 562,205 99,212 7,463 -205,562 -212,99 -463,7 -562,-205 -99,-212 -7,-463 205,-562 z"
   id="path11"
   inkscape:connector-curvature="0"
   style="fill:#ec691f" />
   <g
   id="g13">
    <path
   class="fil1"
   d="m 1786,1093 c 45,-21 94,-16 134,7 l 88,-41 c -66,-66 -169,-87 -259,-45 -115,53 -164,190 -111,305 53,115 190,164 305,111 76,-36 124,-108 131,-186 l 82,-38 c 6,122 -61,242 -179,297 -155,72 -340,5 -412,-150 -72,-155 -5,-340 150,-412 155,-72 340,-5 412,150 -137,64 -273,127 -410,191 -33,-71 -2,-155 69,-188 z"
   id="path15"
   inkscape:connector-curvature="0"
   style="fill:#fefefe" />
    <path
   class="fil2"
   d="m 2769,1476 c -35,-3 -60,-35 -57,-70 2,-34 29,-63 67,-61 25,2 43,18 52,38 l 32,-15 c -4,-8 -8,-15 -14,-21 -17,-20 -41,-31 -67,-34 -26,-2 -52,7 -71,24 -20,18 -32,41 -33,67 -4,53 36,100 91,105 53,3 101,-37 105,-91 0,-5 0,-9 0,-14 l -37,18 c -5,32 -33,56 -66,54 z m -12,-105 c 21,-10 46,-1 56,20 l -76,35 c -10,-21 -1,-46 20,-56 z m 538,106 c -35,-3 -60,-35 -57,-70 2,-34 29,-63 67,-61 25,2 43,18 52,38 l 32,-15 c -4,-8 -8,-15 -14,-21 -17,-20 -41,-31 -67,-34 -26,-2 -52,7 -71,24 -20,17 -32,41 -33,67 -4,53 36,100 91,105 54,3 102,-37 105,-91 0,-5 0,-9 0,-14 l -37,18 c -5,32 -33,56 -66,54 z m -12,-105 c 21,-10 46,-1 56,20 l -76,35 c -10,-21 -1,-46 20,-56 z m -726,104 c -35,-3 -60,-35 -57,-70 2,-34 29,-63 67,-61 25,2 43,18 52,38 l 32,-15 c -4,-8 -8,-15 -14,-21 -17,-20 -41,-31 -67,-34 -26,-2 -52,7 -71,24 -20,18 -32,41 -33,67 -4,53 36,100 91,105 54,3 101,-37 105,-91 0,-5 0,-9 0,-14 l -37,18 c -5,32 -33,56 -66,54 z m 868,31 34,0 0,-89 c 0,-49 19,-70 66,-70 l 5,0 0,-33 -9,0 c -33,0 -53,8 -65,31 l 0,-28 -31,0 0,188 z m -335,-235 0,168 c 0,47 27,70 80,70 l 11,0 0,-32 -11,0 c -32,0 -46,-13 -46,-44 l 0,-81 57,0 0,-32 -57,0 0,-50 -34,0 z m -191,235 33,0 0,-109 c 0,-30 20,-50 47,-50 27,0 46,20 46,50 l 0,109 33,0 0,-103 c 0,-57 -33,-89 -80,-89 -47,0 -80,32 -80,89 l 0,103 z m 1576,-412 c -35,-3 -60,-35 -57,-70 2,-34 29,-63 67,-61 25,2 43,18 52,38 l 32,-15 c -4,-8 -8,-15 -14,-21 -17,-20 -41,-31 -67,-34 -26,-2 -52,7 -71,24 -20,17 -32,41 -33,67 -4,53 36,100 91,105 54,3 102,-37 105,-91 0,-5 0,-9 0,-14 l -37,18 c -5,32 -33,56 -66,54 z m -12,-105 c 21,-10 46,-1 56,20 l -76,35 c -10,-21 -1,-46 20,-56 z m -536,105 c -35,-3 -60,-35 -57,-70 2,-34 29,-63 67,-61 25,2 43,18 52,38 l 32,-15 c -4,-8 -8,-15 -14,-21 -17,-20 -41,-31 -67,-34 -26,-2 -52,7 -71,24 -20,17 -32,41 -33,67 -4,53 36,100 91,105 54,3 102,-37 105,-91 0,-5 0,-9 0,-14 l -37,18 c -5,32 -33,56 -66,54 z m -12,-105 c 21,-10 46,-1 56,20 l -76,35 c -10,-21 -1,-46 20,-56 z m 348,105 c -35,-3 -60,-35 -57,-70 2,-34 29,-63 67,-61 25,2 43,18 52,38 l 32,-15 c -4,-8 -8,-15 -14,-21 -17,-20 -41,-31 -67,-34 -26,-2 -52,7 -71,24 -20,17 -32,41 -33,67 -4,53 36,100 91,105 53,3 102,-37 105,-91 0,-5 0,-9 0,-14 l -37,18 c -5,32 -33,56 -66,54 z m -1356,0 c -35,-3 -60,-35 -57,-70 2,-34 29,-63 67,-61 25,2 43,18 52,38 l 32,-15 c -4,-8 -8,-15 -14,-21 -17,-20 -41,-31 -67,-34 -26,-2 -52,7 -71,24 -20,17 -32,41 -33,67 -4,53 36,100 91,105 54,3 102,-37 105,-91 0,-5 0,-9 0,-14 l -37,18 c -5,32 -33,56 -66,54 z m -217,-48 87,0 0,-35 -87,0 0,35 z m 1367,77 34,0 0,-89 c 0,-49 19,-70 66,-70 l 5,0 0,-33 -9,0 c -33,0 -53,8 -65,31 l 0,-28 -31,0 0,188 z m -512,0 33,0 0,-115 c 0,-27 17,-44 41,-44 24,0 41,17 41,44 l 0,115 33,0 0,-115 c 0,-27 17,-44 41,-44 24,0 41,17 41,44 l 0,115 33,0 0,-109 c 0,-53 -31,-83 -74,-83 -23,0 -43,10 -58,29 -14,-19 -34,-29 -58,-29 -44,0 -74,30 -74,83 l 0,109 z m -297,0 33,0 0,-115 c 0,-27 17,-44 41,-44 24,0 41,17 41,44 l 0,115 33,0 0,-115 c 0,-27 17,-44 41,-44 24,0 41,17 41,44 l 0,115 33,0 0,-109 c 0,-53 -31,-83 -74,-83 -23,0 -43,10 -58,29 -14,-19 -34,-29 -58,-29 -44,0 -74,30 -74,83 l 0,109 z m -182,-95 c 0,-37 27,-65 60,-65 33,0 60,28 60,65 0,37 -27,66 -60,66 -33,0 -60,-29 -60,-66 z m -35,0 c 0,26 10,51 28,70 18,18 41,28 67,28 26,0 49,-10 67,-28 18,-18 28,-43 28,-70 0,-26 -10,-51 -28,-69 -18,-18 -42,-28 -67,-28 -26,0 -49,10 -67,28 -18,19 -28,43 -28,69 z m -472,65 c -35,-3 -60,-35 -57,-70 2,-34 29,-63 67,-61 25,2 43,18 52,38 l 32,-15 c -4,-8 -8,-15 -14,-21 -17,-20 -41,-31 -67,-34 -26,-2 -52,7 -71,24 -20,17 -32,41 -33,67 -4,53 36,100 91,105 54,3 101,-37 105,-91 0,-5 0,-9 0,-14 l -37,18 c -5,32 -33,56 -66,54 z"
   id="path17"
   inkscape:connector-curvature="0"
   style="fill:#0c54a0;fill-rule:nonzero" />
   </g>
   <path
   class="fil3"
   d="m 2543,990 c 21,-10 46,-1 56,20 l -76,35 c -10,-21 -1,-46 20,-56 z"
   id="path19"
   inkscape:connector-curvature="0"
   style="fill:#ec691f;fill-rule:nonzero" />
  </g>
 </g>
</svg>